<mxfile host="app.diagrams.net" modified="2023-10-09T10:55:42.787Z" agent="Mozilla/5.0 (Windows NT 10.0; Win64; x64) AppleWebKit/537.36 (KHTML, like Gecko) Chrome/116.0.5845.967 YaBrowser/23.9.1.967 Yowser/2.5 Safari/537.36" etag="1RxpOShW5GAXJb4DzX2Y" version="22.0.4" type="device">
  <diagram name="Страница — 1" id="HjkG9JvWGIo-SRKBQGUM">
    <mxGraphModel dx="1386" dy="785" grid="1" gridSize="10" guides="1" tooltips="1" connect="1" arrows="1" fold="1" page="1" pageScale="1" pageWidth="827" pageHeight="1169" math="0" shadow="0">
      <root>
        <mxCell id="0" />
        <mxCell id="1" parent="0" />
        <mxCell id="PbDYM0hrfJ8_ZjSdwshX-2" value="" style="rounded=0;whiteSpace=wrap;html=1;" parent="1" vertex="1">
          <mxGeometry width="690" height="440" as="geometry" />
        </mxCell>
        <mxCell id="PbDYM0hrfJ8_ZjSdwshX-3" value="" style="rounded=0;whiteSpace=wrap;html=1;align=left;fillColor=#dae8fc;strokeColor=#6c8ebf;" parent="1" vertex="1">
          <mxGeometry width="690" height="60" as="geometry" />
        </mxCell>
        <mxCell id="PbDYM0hrfJ8_ZjSdwshX-4" value="MessageMe" style="text;html=1;align=center;verticalAlign=middle;resizable=0;points=[];autosize=1;strokeColor=none;fillColor=none;" parent="1" vertex="1">
          <mxGeometry x="20" y="15" width="90" height="30" as="geometry" />
        </mxCell>
        <mxCell id="PbDYM0hrfJ8_ZjSdwshX-5" value="Messenger" style="text;html=1;align=center;verticalAlign=middle;resizable=0;points=[];autosize=1;strokeColor=none;fillColor=none;fontSize=19;" parent="1" vertex="1">
          <mxGeometry x="152.5" y="90" width="120" height="40" as="geometry" />
        </mxCell>
        <mxCell id="PbDYM0hrfJ8_ZjSdwshX-6" value="" style="rounded=1;whiteSpace=wrap;html=1;" parent="1" vertex="1">
          <mxGeometry x="290" y="130" width="190" height="40" as="geometry" />
        </mxCell>
        <mxCell id="PbDYM0hrfJ8_ZjSdwshX-7" value="User: message" style="text;html=1;align=center;verticalAlign=middle;resizable=0;points=[];autosize=1;strokeColor=none;fillColor=none;" parent="1" vertex="1">
          <mxGeometry x="290" y="135" width="100" height="30" as="geometry" />
        </mxCell>
        <mxCell id="VkkMrgVVi_Y4NXLHNxvW-5" value="" style="rounded=1;whiteSpace=wrap;html=1;" parent="1" vertex="1">
          <mxGeometry x="280" y="230" width="220" height="40" as="geometry" />
        </mxCell>
        <mxCell id="e5p1coV2n5sSq9LqLdgC-4" value="" style="rounded=1;whiteSpace=wrap;html=1;" vertex="1" parent="1">
          <mxGeometry x="347.5" y="180" width="190" height="40" as="geometry" />
        </mxCell>
        <mxCell id="e5p1coV2n5sSq9LqLdgC-5" value="Me: message" style="text;html=1;align=center;verticalAlign=middle;resizable=0;points=[];autosize=1;strokeColor=none;fillColor=none;" vertex="1" parent="1">
          <mxGeometry x="347.5" y="185" width="100" height="30" as="geometry" />
        </mxCell>
        <mxCell id="e5p1coV2n5sSq9LqLdgC-6" value="" style="rounded=1;whiteSpace=wrap;html=1;fillColor=#dae8fc;strokeColor=#6c8ebf;" vertex="1" parent="1">
          <mxGeometry x="500" y="230" width="40" height="40" as="geometry" />
        </mxCell>
        <mxCell id="e5p1coV2n5sSq9LqLdgC-7" value="" style="rounded=1;whiteSpace=wrap;html=1;" vertex="1" parent="1">
          <mxGeometry x="153" y="130" width="120" height="110" as="geometry" />
        </mxCell>
        <mxCell id="e5p1coV2n5sSq9LqLdgC-8" value="" style="rounded=0;whiteSpace=wrap;html=1;fillColor=#dae8fc;strokeColor=#6c8ebf;" vertex="1" parent="1">
          <mxGeometry x="153" y="168.75" width="120" height="32.5" as="geometry" />
        </mxCell>
        <mxCell id="e5p1coV2n5sSq9LqLdgC-9" value="Room #1" style="text;html=1;strokeColor=none;fillColor=none;align=center;verticalAlign=middle;whiteSpace=wrap;rounded=0;" vertex="1" parent="1">
          <mxGeometry x="160" y="135" width="60" height="30" as="geometry" />
        </mxCell>
        <mxCell id="e5p1coV2n5sSq9LqLdgC-10" value="Room #2" style="text;html=1;strokeColor=none;fillColor=none;align=center;verticalAlign=middle;whiteSpace=wrap;rounded=0;fontColor=#0000CC;" vertex="1" parent="1">
          <mxGeometry x="160" y="170" width="60" height="30" as="geometry" />
        </mxCell>
        <mxCell id="e5p1coV2n5sSq9LqLdgC-11" value="Room #3" style="text;html=1;strokeColor=none;fillColor=none;align=center;verticalAlign=middle;whiteSpace=wrap;rounded=0;" vertex="1" parent="1">
          <mxGeometry x="160" y="205" width="60" height="30" as="geometry" />
        </mxCell>
        <mxCell id="e5p1coV2n5sSq9LqLdgC-12" value="" style="html=1;verticalLabelPosition=bottom;align=center;labelBackgroundColor=#ffffff;verticalAlign=top;strokeWidth=2;shadow=0;dashed=0;shape=mxgraph.ios7.icons.pointer;strokeColor=#000099;" vertex="1" parent="1">
          <mxGeometry x="503" y="235" width="34" height="30" as="geometry" />
        </mxCell>
      </root>
    </mxGraphModel>
  </diagram>
</mxfile>
